<?xml version="1.0" standalone="no"?>
<!DOCTYPE svg PUBLIC "-//W3C//DTD SVG 20010904//EN"
 "http://www.w3.org/TR/2001/REC-SVG-20010904/DTD/svg10.dtd">
<svg version="1.0" xmlns="http://www.w3.org/2000/svg"
 width="500.000000pt" height="500.000000pt" viewBox="0 0 500.000000 500.000000"
 preserveAspectRatio="xMidYMid meet">
<metadata>
Created by potrace 1.14, written by Peter Selinger 2001-2017
</metadata>
<g transform="translate(0.000000,500.000000) scale(0.100000,-0.100000)"
fill="#000000" stroke="none">
<path d="M2278 4495 c-2 -2 -30 -6 -63 -9 -33 -3 -69 -7 -80 -10 -11 -2 -40
-7 -65 -11 -72 -11 -256 -63 -349 -99 -574 -223 -1017 -697 -1198 -1281 -33
-107 -33 -107 -80 -111 -56 -4 -159 -40 -214 -75 -147 -94 -224 -238 -222
-419 2 -194 102 -356 268 -435 60 -28 87 -37 160 -50 6 -1 20 -3 31 -3 18 -2
28 -22 64 -134 71 -217 201 -457 349 -643 115 -145 367 -369 491 -436 16 -9
35 -21 42 -27 19 -15 224 -117 288 -142 146 -59 320 -104 485 -127 122 -16
490 -9 595 12 14 3 37 7 52 10 421 77 857 333 1143 670 180 213 324 479 399
738 l23 79 104 3 c111 2 183 21 262 69 180 107 270 329 221 545 -26 112 -133
247 -241 304 -91 47 -141 59 -252 61 -92 1 -95 2 -102 26 -53 181 -77 246
-148 390 -38 76 -120 216 -146 248 -7 9 -35 46 -61 82 -109 148 -355 368 -544
487 -206 128 -504 237 -735 269 -22 3 -58 8 -80 11 -44 6 -392 13 -397 8z"/>
</g>
</svg>
